Flexion_states
version=1
nRows=14
nColumns=41
inDegrees=yes

# SIMM Motion File Header:
name Flexion_states
datacolumns 41
datarows 14
otherdata 1
range 0.00000000 1.48549178
endheader
time	/jointset/ground_thorax/thorax_tilt/value	/jointset/ground_thorax/thorax_tilt/speed	/jointset/ground_thorax/thorax_list/value	/jointset/ground_thorax/thorax_list/speed	/jointset/ground_thorax/thorax_rotation/value	/jointset/ground_thorax/thorax_rotation/speed	/jointset/ground_thorax/thorax_tx/value	/jointset/ground_thorax/thorax_tx/speed	/jointset/ground_thorax/thorax_ty/value	/jointset/ground_thorax/thorax_ty/speed	/jointset/ground_thorax/thorax_tz/value	/jointset/ground_thorax/thorax_tz/speed	/jointset/sternoclavicular/sternoclavicular_r2/value	/jointset/sternoclavicular/sternoclavicular_r2/speed	/jointset/sternoclavicular/sternoclavicular_r3/value	/jointset/sternoclavicular/sternoclavicular_r3/speed	/jointset/unrotscap/unrotscap_r3/value	/jointset/unrotscap/unrotscap_r3/speed	/jointset/unrotscap/unrotscap_r2/value	/jointset/unrotscap/unrotscap_r2/speed	/jointset/acromioclavicular/acromioclavicular_r2/value	/jointset/acromioclavicular/acromioclavicular_r2/speed	/jointset/acromioclavicular/acromioclavicular_r3/value	/jointset/acromioclavicular/acromioclavicular_r3/speed	/jointset/acromioclavicular/acromioclavicular_r1/value	/jointset/acromioclavicular/acromioclavicular_r1/speed	/jointset/unrothum/unrothum_r1/value	/jointset/unrothum/unrothum_r1/speed	/jointset/unrothum/unrothum_r3/value	/jointset/unrothum/unrothum_r3/speed	/jointset/unrothum/unrothum_r2/value	/jointset/unrothum/unrothum_r2/speed	/jointset/shoulder0/elv_angle/value	/jointset/shoulder0/elv_angle/speed	/jointset/shoulder1/shoulder_elv/value	/jointset/shoulder1/shoulder_elv/speed	/jointset/shoulder1/shoulder1_r2/value	/jointset/shoulder1/shoulder1_r2/speed	/jointset/shoulder2/shoulder_rot/value	/jointset/shoulder2/shoulder_rot/speed
      0.00000000	      0.00000000	      0.00000000	      0.00000000	      0.00000000	      0.00000000	      0.00000000	      0.00000000	      0.00000000	      0.00000000	      0.00000000	      0.00000000	      0.00000000	      0.00000000	      0.00000000	     -0.00000000	      0.00000000	      0.00000000	      0.00000000	     -0.00000000	      0.00000000	      0.00000000	      0.00000000	     -0.00000000	      0.00000000	     -0.00000000	      0.00000000	      0.00000000	      0.00000000	      0.00000000	      0.00000000	     -0.00000000	      0.00000000	     90.00000000	      0.00000000	     -0.00000000	      0.00000000	    -90.00000000	      0.00000000	      0.00000000	      0.00000000
      0.01000000	      0.00000000	      0.00000000	      0.00000000	      0.00000000	      0.00000000	      0.00000000	      0.00000000	     -0.00000000	      0.00000000	      0.00000000	     -0.00000000	     -0.00000000	     -0.00065555	     -0.13108835	      0.00027766	      0.05552279	     -0.00027766	     -0.05552279	      0.00065555	      0.13108835	     -0.00013273	     -0.02654252	      0.00107269	      0.21450445	      0.00048218	      0.09642044	     -0.00048218	     -0.09642044	     -0.00107269	     -0.21450445	      0.00013273	      0.02654252	     90.00000000	     -0.00000000	      0.00270889	      0.54169253	    -90.00000000	     -0.00000000	     -0.00000000	     -0.00000000
      0.06000000	      0.00000000	      0.00000000	     -0.00000000	     -0.00000000	     -0.00000000	     -0.00000000	      0.00000000	      0.00000000	     -0.00000000	     -0.00000000	     -0.00000000	     -0.00000000	     -0.02356236	     -0.78466609	      0.00997990	      0.33234726	     -0.00997990	     -0.33234726	      0.02356236	      0.78466609	     -0.00477086	     -0.15887770	      0.03855592	      1.28397654	      0.01733101	      0.57715160	     -0.01733101	     -0.57715160	     -0.03855592	     -1.28397654	      0.00477086	      0.15887770	     90.00000000	      0.00000000	      0.09736606	      3.24245257	    -90.00000000	     -0.00000000	      0.00000000	      0.00000000
      0.31000000	      0.00000000	      0.00000000	     -0.00000000	     -0.00000000	     -0.00000000	     -0.00000000	      0.00000000	     -0.00000000	     -0.00000000	     -0.00000000	     -0.00000000	     -0.00000000	     -0.62397942	     -4.00553742	      0.26428802	      1.69655526	     -0.26428802	     -1.69655526	      0.62397942	      4.00553742	     -0.12634217	     -0.81103360	      1.02103932	      6.55440082	      0.45896047	      2.94622435	     -0.45896047	     -2.94622435	     -1.02103932	     -6.55440082	      0.12634217	      0.81103360	     90.00000000	     -0.00000000	      2.57845175	     16.55196426	    -90.00000000	      0.00000000	      0.00000000	      0.00000000
      0.67746945	      0.00000000	      0.00000000	     -0.00000000	      0.00000000	     -0.00000000	     -0.00000000	     -0.00000000	     -0.00000000	     -0.00000000	     -0.00000000	     -0.00000000	     -0.00000000	     -2.94434501	     -8.59364792	      1.24708460	      3.63986079	     -1.24708460	     -3.63986079	      2.94434501	      8.59364792	     -0.59616538	     -1.74002550	      4.81793460	     14.06208633	      2.16567717	      6.32095325	     -2.16567717	     -6.32095325	     -4.81793460	    -14.06208633	      0.59616538	      1.74002550	     90.00000000	     -0.00000000	     12.16683013	     35.51127810	    -90.00000000	      0.00000000	      0.00000000	     -0.00000000
      0.81328791	      0.00000000	      0.00000000	     -0.00000000	      0.00000000	     -0.00000000	      0.00000000	     -0.00000000	     -0.00000000	     -0.00000000	     -0.00000000	     -0.00000000	     -0.00000000	     -4.22383776	    -10.24326699	      1.78901691	      4.33856102	     -1.78901691	     -4.33856102	      4.22383776	     10.24326699	     -0.85523464	     -2.07403723	      6.91161330	     16.76141566	      3.10679251	      7.53431050	     -3.10679251	     -7.53431050	     -6.91161330	    -16.76141566	      0.85523464	      2.07403723	     90.00000000	     -0.00000000	     17.45404034	     42.32795042	    -90.00000000	      0.00000000	      0.00000000	      0.00000000
      0.91387112	      0.00000000	      0.00000000	     -0.00000000	     -0.00000000	     -0.00000000	      0.00000000	     -0.00000000	     -0.00000000	     -0.00000000	     -0.00000000	     -0.00000000	     -0.00000000	     -5.31484933	    -11.44799415	      2.25111755	      4.84882619	     -2.25111755	     -4.84882619	      5.31484933	     11.44799415	     -1.07614059	     -2.31796810	      8.69687364	     18.73275280	      3.90927280	      8.42043292	     -3.90927280	     -8.42043292	     -8.69687364	    -18.73275280	      1.07614059	      2.31796810	     90.00000000	     -0.00000000	     21.96239529	     47.30620897	    -90.00000000	     -0.00000000	      0.00000000	      0.00000000
      1.02071859	      0.00000000	      0.00000000	     -0.00000000	     -0.00000000	     -0.00000000	      0.00000000	     -0.00000000	     -0.00000000	     -0.00000000	     -0.00000000	     -0.00000000	     -0.00000000	     -6.60568192	    -12.71122354	      2.79785288	      5.38387011	     -2.79785288	     -5.38387011	      6.60568192	     12.71122354	     -1.33750592	     -2.57374439	     10.80910811	     20.79981919	      4.85872902	      9.34958594	     -4.85872902	     -9.34958594	    -10.80910811	    -20.79981919	      1.33750592	      2.57374439	     90.00000000	     -0.00000000	     27.29646478	     52.52621455	    -90.00000000	     -0.00000000	      0.00000000	      0.00000000
      1.13193233	      0.00000000	      0.00000000	     -0.00000000	     -0.00000000	     -0.00000000	      0.00000000	     -0.00000000	     -0.00000000	     -0.00000000	     -0.00000000	     -0.00000000	     -0.00000000	     -8.09153513	    -14.00526671	      3.42718968	      5.93196529	     -3.42718968	     -5.93196529	      8.09153513	     14.00526671	     -1.63835866	     -2.83575979	     13.24046163	     22.91730724	      5.95163029	     10.30140366	     -5.95163029	    -10.30140366	    -13.24046163	    -22.91730724	      1.63835866	      2.83575979	     90.00000000	     -0.00000000	     33.43641222	     57.87355102	    -90.00000000	     -0.00000000	      0.00000000	      0.00000000
      1.22752270	      0.00000000	      0.00000000	     -0.00000000	      0.00000000	     -0.00000000	      0.00000000	     -0.00000000	     -0.00000000	     -0.00000000	     -0.00000000	     -0.00000000	     -0.00000000	     -9.48238412	    -15.08724095	      4.01628720	      6.39023815	     -4.01628720	     -6.39023815	      9.48238412	     15.08724095	     -1.91997512	     -3.05483588	     15.51635642	     24.68777949	      6.97465235	     11.09723666	     -6.97465235	    -11.09723666	    -15.51635642	    -24.68777949	      1.91997512	      3.05483588	     90.00000000	     -0.00000000	     39.18377652	     62.34456130	    -90.00000000	      0.00000000	      0.00000000	      0.00000000
      1.30484363	      0.00000000	      0.00000000	     -0.00000000	      0.00000000	      0.00000000	      0.00000000	     -0.00000000	     -0.00000000	     -0.00000000	     -0.00000000	     -0.00000000	     -0.00000000	    -10.68097249	    -15.89838500	      4.52395227	      6.73380022	     -4.52395227	     -6.73380022	     10.68097249	     15.89838500	     -2.16266301	     -3.21907478	     17.47764845	     26.01508283	      7.85625946	     11.69386380	     -7.85625946	    -11.69386380	    -17.47764845	    -26.01508283	      2.16266301	      3.21907478	     90.00000000	      0.00000000	     44.13666794	     65.69642794	    -90.00000000	     -0.00000000	      0.00000000	      0.00000000
      1.36982273	      0.00000000	      0.00000000	     -0.00000000	     -0.00000000	      0.00000000	      0.00000000	     -0.00000000	     -0.00000000	     -0.00000000	     -0.00000000	     -0.00000000	     -0.00000000	    -11.73270240	    -16.43678887	      4.96941507	      6.96184251	     -4.96941507	     -6.96184251	     11.73270240	     16.43678887	     -2.37561529	     -3.32808977	     19.19863086	     26.89609190	      8.62984661	     12.08988022	     -8.62984661	    -12.08988022	    -19.19863086	    -26.89609190	      2.37561529	      3.32808977	     90.00000000	      0.00000000	     48.48270048	     67.92125840	    -90.00000000	      0.00000000	      0.00000000	      0.00000000
      1.42765726	      0.00000000	      0.00000000	     -0.00000000	     -0.00000000	      0.00000000	      0.00000000	     -0.00000000	     -0.00000000	     -0.00000000	     -0.00000000	     -0.00000000	     -0.00000000	    -12.69075245	    -16.62595462	      5.37519953	      7.04196413	     -5.37519953	     -7.04196413	     12.69075245	     16.62595462	     -2.56959944	     -3.36639170	     20.76632162	     27.20563043	      9.33452867	     12.22901879	     -9.33452867	    -12.22901879	    -20.76632162	    -27.20563043	      2.56959944	      3.36639170	     90.00000000	      0.00000000	     52.44162247	     68.70294248	    -90.00000000	      0.00000000	      0.00000000	      0.00000000
      1.48549178	      0.00000000	      0.00000000	     -0.00000000	     -0.00000000	      0.00000000	      0.00000000	     -0.00000000	     -0.00000000	     -0.00000000	     -0.00000000	     -0.00000000	     -0.00000000	    -13.64449348	    -16.22016349	      5.77915890	      6.87009029	     -5.77915890	     -6.87009029	     13.64449348	     16.22016349	     -2.76271111	     -3.28422788	     22.32696140	     26.54162022	     10.03604130	     11.93054406	    -10.03604130	    -11.93054406	    -22.32696140	    -26.54162022	      2.76271111	      3.28422788	     90.00000000	     -0.00000000	     56.38273844	     67.02610373	    -90.00000000	      0.00000000	      0.00000000	      0.00000000
